<svg width="24" height="24" viewBox="0 0 24 24" fill="none" xmlns="http://www.w3.org/2000/svg">
  <g stroke="#AAB6C0" stroke-width="1.45" stroke-linecap="round" stroke-linejoin="round">
    <path d="M12 4C14.2 4 16 5.8 16 8"/>
    <path d="M16 8C18.2 8 20 9.8 20 12"/>
    <path d="M20 12C20 14.2 18.2 16 16 16"/>
    <path d="M16 16C16 18.2 14.2 20 12 20"/>
    <path d="M12 20C9.8 20 8 18.2 8 16"/>
    <path d="M8 16C5.8 16 4 14.2 4 12"/>
    <path d="M4 12C4 9.8 5.8 8 8 8"/>
    <path d="M8 8C8 5.8 9.8 4 12 4"/>
    <path d="M8.2 9.2L12 7.2L15.8 9.2V14.8L12 16.8L8.2 14.8V9.2Z"/>
  </g>
</svg>
